<?xml version="1.0" encoding="utf-8"?>
<!-- Generator: Adobe Illustrator 19.2.1, SVG Export Plug-In . SVG Version: 6.00 Build 0)  -->
<svg version="1.1" id="Layer_1" xmlns="http://www.w3.org/2000/svg" xmlns:xlink="http://www.w3.org/1999/xlink" x="0px" y="0px"
	 viewBox="0 0 100 100" style="enable-background:new 0 0 100 100;" xml:space="preserve">
<path fill="none" d="M45.1,52.1"/>
<g>
	<path fill="#7fc8fd" d="M46.1,9.9C46.1,9.9,46,9.9,46.1,9.9l4.9,5c0,0,0,0,0-0.1c8.7-8.7,23-8.7,31.8,0.2c8.8,8.8,8.9,23.1,0.2,31.8
		c-8.5,8.5-22.1,8.7-31,0.6l-4.9,4.9C58.7,63,76.7,62.8,87.8,51.7c11.4-11.4,11.3-30-0.2-41.6C76.1-1.4,57.5-1.5,46.1,9.9z"/>

		<rect x="27.5" y="17.6" transform="matrix(0.7071 -0.7071 0.7071 0.7071 -3.2469 34.3186)" fill="#7fc8fd" width="24.6" height="6.9"/>
	<rect x="28.5" y="15.8" fill="#7fc8fd" width="6.9" height="14.5"/>
	<rect x="28.5" y="25.4" fill="#7fc8fd" width="16.8" height="6.9"/>
	<g>
		<path fill="#5eacf7" d="M52.9,89.7C53,89.7,53,89.7,52.9,89.7l-4.9-5c0,0,0,0,0,0.1c-8.7,8.7-23,8.7-31.8-0.2
			C7.4,75.8,7.3,61.5,16,52.8c8.5-8.5,22.1-8.7,31-0.6l4.9-4.9C40.4,36.6,22.3,36.8,11.2,48C-0.3,59.4-0.2,78,11.4,89.5
			C22.9,101.1,41.5,101.1,52.9,89.7z"/>

			<rect x="47.1" y="75.5" transform="matrix(0.7071 -0.7071 0.7071 0.7071 -38.59 64.7196)" fill="#5eacf7" width="23.5" height="6.9"/>
		<rect x="62.8" y="70.1" fill="#5eacf7" width="6.9" height="14.5"/>
		<rect x="52.9" y="68.1" fill="#5eacf7" width="16.8" height="6.9"/>
	</g>
</g>
<path fill="none" d="M119.5,72.2"/>
<path fill="#447abc" d="M45.6,31.3"/>
<path fill="#447abc" d="M40,25.7"/>
<g>
	<path fill="none" d="M15.9,63.1"/>
	<path fill="#d92d80" d="M77.5,22.5c0,0-23.7,4.5-41.1,21.9c-3.9,3.9-7.4,7.9-10.5,11.7L43.8,74c3.8-3.1,7.8-6.6,11.7-10.5
		C72.9,46.2,77.5,22.5,77.5,22.5z M52.4,47.6c-1.8-1.8-1.8-4.6,0-6.4c1.8-1.8,4.6-1.8,6.4,0s1.8,4.6,0,6.4
		C57,49.3,54.1,49.3,52.4,47.6z"/>
	<path fill="#c8d2d2" d="M49.1,69.6c1.1,2.8-1.4,8.3-6.2,13.1c-2.1,2.1-4.3,3.7-6.3,4.8l-0.2-0.2c4.4-4.8,7.1-9.8,7.4-13.3
		C45.6,72.7,47.3,71.2,49.1,69.6z"/>
	<path fill="#c8d2d2" d="M30.3,50.8c-2.8-1.1-8.3,1.4-13.1,6.2c-2.1,2.1-3.7,4.3-4.8,6.3l0.2,0.2c4.8-4.4,9.8-7.1,13.3-7.4
		C27.3,54.4,28.8,52.6,30.3,50.8z"/>
	<path fill="#aeb8b8" d="M30.3,50.9c-1.7,0.4-4.1,1.9-6.3,4.2c-0.7,0.7-1.3,1.4-1.8,2.1c1.4-0.6,2.7-0.9,3.8-1
		C27.3,54.4,28.7,52.7,30.3,50.9z"/>
	<path fill="#aeb8b8" d="M49,69.7c-0.4,1.7-1.9,4.1-4.2,6.3c-0.7,0.7-1.4,1.3-2.1,1.8c0.6-1.4,0.9-2.7,1-3.8
		C45.5,72.7,47.3,71.2,49,69.7z"/>
	<path fill="#fd75d3" d="M52.4,47.6c-1.8-1.8-1.8-4.6,0-6.4c1.8-1.8,4.6-1.8,6.4,0l18.7-18.7c0,0-23.7,4.5-41.1,21.9
		c-3.9,3.9-7.4,7.9-10.5,11.7l9,9L52.4,47.6z"/>
	<path fill="#fd783d" d="M26,74c0,0-2.6-6.9,0-9.5l3.1-3.1l0.1,0.1c-1.7,2.6-1.4,6.1,0.9,8.4s5.8,2.6,8.4,0.9l0.1,0.1L35.4,74
		C32.8,76.6,26,74,26,74z"/>
	<path fill="#fda578" d="M30.1,69.9c-2.3-2.3-2.6-5.8-0.9-8.4l-0.1-0.1L26,64.5c-2.6,2.6,0,9.5,0,9.5L30.1,69.9z"/>
</g>
</svg>
